<?xml version="1.0" standalone="no"?><!DOCTYPE svg PUBLIC "-//W3C//DTD SVG 1.1//EN" "http://www.w3.org/Graphics/SVG/1.1/DTD/svg11.dtd"><svg class="icon" width="200px" height="200.00px" viewBox="0 0 1024 1024" version="1.1" xmlns="http://www.w3.org/2000/svg"><path fill="#d4237a" d="M994 0H30C13.4 0 0 13.4 0 30v278.9h60V90c0-16.6 13.4-30 30-30h844c16.6 0 30 13.4 30 30v844c0 16.6-13.4 30-30 30H714.5v60H994c16.6 0 30-13.4 30-30V30c0-16.6-13.4-30-30-30z"  /><path fill="#d4237a" d="M787.8 276.4L745.3 234 184.5 794.8 0.3 617.2 0 1024h422.3L227.7 836.5z"  /></svg>