<?xml version="1.0" standalone="no"?><!DOCTYPE svg PUBLIC "-//W3C//DTD SVG 1.1//EN" "http://www.w3.org/Graphics/SVG/1.1/DTD/svg11.dtd"><svg class="icon" width="200px" height="200.00px" viewBox="0 0 1024 1024" version="1.1" xmlns="http://www.w3.org/2000/svg"><path fill="#d4237a" d="M512 0C229.376 0 0 229.376 0 512s229.376 512 512 512 512-229.376 512-512S794.624 0 512 0z m287.744 763.904H225.28v-59.392s0.512-34.816 71.68-67.072c34.304-15.36 85.504-55.296 161.28-69.12-19.456-20.992-33.792-53.76-49.152-92.672-8.704-22.528-7.168-41.472-7.168-69.12 0-19.968-4.096-52.224 1.024-70.144 16.896-59.904 59.392-76.8 109.056-76.8 49.664 0 92.16 16.384 109.056 76.8 4.608 17.92 1.024 50.688 1.024 70.656 0 27.136 1.536 46.592-7.168 69.12-15.36 38.912-30.208 71.68-49.664 92.672 76.288 13.824 127.488 53.76 162.304 69.12 71.68 31.744 71.68 67.072 72.192 66.56v59.392z"  /></svg>