<?xml version="1.0" standalone="no"?><!DOCTYPE svg PUBLIC "-//W3C//DTD SVG 1.1//EN" "http://www.w3.org/Graphics/SVG/1.1/DTD/svg11.dtd"><svg t="1609487908751" class="icon" viewBox="0 0 1024 1024" version="1.1" xmlns="http://www.w3.org/2000/svg" p-id="2571" xmlns:xlink="http://www.w3.org/1999/xlink" width="200" height="200"><defs><style type="text/css"></style></defs><path d="M689.956018 243.306398 331.524602 243.306398c-148.494009 0-268.896216 120.377648-268.896216 268.86961 0 148.525732 120.389928 268.870634 268.896216 268.870634l358.431416 0c148.495032 0 268.899286-120.377648 268.899286-268.870634C958.856327 363.650277 838.465376 243.306398 689.956018 243.306398zM689.954995 763.115248 331.525626 763.115248c-138.381697 0-250.970962-112.570845-250.970962-250.943332S193.142905 261.22756 331.525626 261.22756l358.430392 0c138.389884 0 250.979148 112.570845 250.979148 250.943332S828.345901 763.115248 689.954995 763.115248z" p-id="2572" fill="#d81e06"></path><path d="M430.54278 504.790808 430.54278 504.790808c-9.82374-4.464685-27.935236-9.682523-54.333466-15.654538-26.399253-5.973038-42.724057-11.80486-48.974411-17.498536-6.362918-5.691629-9.544377-12.947893-9.544377-21.766746 0-10.157337 4.493338-18.837021 13.478989-26.034956 8.984628-7.201006 23.301705-10.800997 42.947138-10.800997 18.863626 0 33.124422 3.962242 42.778292 11.886725 9.656941 7.924483 15.32094 19.645432 16.995069 35.160801l31.143301-2.343371c-0.558725-14.399965-4.576225-27.291576-12.05557-38.677904-7.478322-11.386328-18.165732-20.007683-32.063253-25.868157-13.896498-5.860475-29.941939-8.7902-48.136324-8.7902-16.521279 0-31.534204 2.790556-45.040822 8.371668-13.506619 5.581112-23.77652 13.757329-30.807656 24.52865-7.033184 10.772344-10.54824 22.353101-10.54824 34.741245 0 11.273764 2.873444 21.459754 8.622378 30.556946 5.747911 9.097192 14.481829 16.715707 26.202779 22.854521 9.04091 4.800329 24.835641 9.905604 47.38317 15.319917s37.115316 9.405207 43.701315 11.971659c10.268878 3.906983 17.635659 8.734942 22.100344 14.481829 4.465708 5.748934 6.697539 12.475126 6.697539 20.176528 0 7.589862-2.316765 14.595416-6.947226 21.013593-4.632507 6.4192-11.69332 11.468193-21.180392 15.154141-9.488095 3.683902-20.426215 5.52483-32.818453 5.52483-13.951757 0-26.508747-2.427282-37.671994-7.28287-11.163247-4.856611-19.394722-11.218506-24.697495-19.086707-5.302773-7.869225-8.67866-17.943674-10.128685-30.223349l-30.640857 2.679016c0.446162 16.408715 4.938476 31.114648 13.478989 44.119847 8.538467 13.003152 20.314675 22.74298 35.328623 29.217439 15.013949 6.474458 33.625842 9.711176 55.838749 9.711176 17.525142 0 33.290197-3.209088 47.300282-9.627265 14.008039-6.4192 24.75173-15.404852 32.230052-26.957978 7.477298-11.553127 11.217483-23.858384 11.217483-36.919864 0-13.171997-3.403516-24.805966-10.212596-34.909068C455.378421 519.718799 444.829158 511.375783 430.54278 504.790808z" p-id="2573" fill="#d81e06"></path><path d="M702.788278 607.764064c12.389168-11.945053 21.655206-25.980721 27.792996-42.111097l0.001023 0c6.139837-16.129352 9.209756-34.296107 9.209756-54.499242 0-24.335245-4.7727-46.184879-14.317077-65.549925-9.543354-19.367093-23.413246-34.435277-41.60763-45.206598-18.195408-10.771321-38.621623-16.156982-61.280692-16.156982-22.435988 0-42.723034 5.190209-60.862159 15.57165-18.139126 10.380418-32.120558 25.504884-41.941228 45.375443-9.822716 19.868513-14.734586 41.914622-14.734586 66.137303 0 24.334221 4.882194 46.211485 14.649652 65.632813 9.765411 19.423375 23.692608 34.491559 41.774429 45.206598 18.082844 10.716063 38.23072 16.075117 60.443627 16.075117 21.988804 0 42.081421-5.078669 60.276828-15.237029 17.524119 13.727653 35.105542 23.775496 52.741201 30.138414l9.544377-22.604834C731.756029 625.734344 717.857485 618.144482 702.788278 607.764064zM677.674297 589.68122l0.001023-0.002047c-12.168134-10.381441-27.625174-18.195408-46.379307-23.440875l-7.870248 23.607674c11.275811 2.790556 21.989827 7.478322 32.147164 14.06432-10.269901 4.353145-21.209044 6.53074-32.818453 6.53074-24.557302 0-44.732807-8.53949-60.526515-25.618471-15.794731-17.080004-23.692608-41.580001-23.692608-73.503061 0-32.92897 7.982812-57.681724 23.944342-74.257238 15.96153-16.575514 36.054147-24.864294 60.275805-24.864294 16.185634 0 30.780027 4.102435 43.784202 12.30628 13.005198 8.203846 22.883173 19.72832 29.635971 34.57547 6.753821 14.846126 10.128685 32.203446 10.128685 52.071959C706.303334 546.091446 696.759981 572.267619 677.674297 589.68122z" p-id="2574" fill="#d81e06"></path></svg>