<?xml version="1.0" standalone="no"?><!DOCTYPE svg PUBLIC "-//W3C//DTD SVG 1.1//EN" "http://www.w3.org/Graphics/SVG/1.1/DTD/svg11.dtd"><svg class="icon" width="200px" height="200.00px" viewBox="0 0 1024 1024" version="1.1" xmlns="http://www.w3.org/2000/svg"><path fill="#d4237a" d="M687.396571 397.546057V260.681143c0-139.000686-102.985143-251.582171-231.131428-251.582172h-44.587886c-128.380343 0-231.131429 112.201143-231.131428 251.582172v244.911543c0 138.883657 103.102171 251.582171 231.131428 251.582171h44.587886a215.625143 215.625143 0 0 0 69.632-11.585828 30.5152 30.5152 0 0 0-19.748572-57.7536 154.565486 154.565486 0 0 1-49.912685 8.309028h-44.558629c-93.856914 0-170.101029-85.167543-170.101028-190.551771V260.7104c0-105.8816 75.863771-190.551771 170.101028-190.551771h44.587886c93.973943 0 170.130286 85.050514 170.130286 190.551771v136.835657a30.5152 30.5152 0 0 0 61.001142 0z m-42.539885 398.101943a297.428114 297.428114 0 0 1-151.464229 43.095771h-102.868114c-160.475429 0-303.864686-140.814629-303.864686-301.056a30.5152 30.5152 0 1 0-61.0304 0c0 194.091886 170.861714 362.0864 364.895086 362.0864h103.160686a358.692571 358.692571 0 0 0 182.857142-51.960685 30.5152 30.5152 0 0 0-31.685485-52.165486z m-199.738515 54.418286c-16.852114 0-30.5152 13.546057-30.5152 30.251885v110.533486c0 16.676571 13.663086 30.222629 30.5152 30.222629 16.852114 0 30.5152-13.546057 30.5152-30.222629v-110.533486c0-16.676571-13.663086-30.222629-30.5152-30.222628zM815.864686 491.52V240.0256l141.604571-95.963429a30.5152 30.5152 0 1 1 34.6112 50.263772l-113.927314 78.4384-1.287314 319.751314c0 1.609143-0.117029 3.218286-0.351086 4.768914l0.380343 6.846172c-3.218286 74.3424-66.589257 132.388571-141.897143 129.579886-75.483429 2.808686-138.8544-55.237486-142.043429-129.8432 3.189029-74.3424 66.589257-132.388571 141.838629-129.579886a137.333029 137.333029 0 0 1 76.624457 19.719314l4.447086-2.486857z m-80.749715 49.093486c-38.7072-2.574629-72.001829 25.746286-75.307885 63.136914 3.306057 37.888 36.600686 66.208914 75.307885 63.634286 38.2976 2.574629 71.592229-25.746286 74.898286-63.136915a70.217143 70.217143 0 0 0-74.898286-63.634285z"  /></svg>