<?xml version="1.0" standalone="no"?><!DOCTYPE svg PUBLIC "-//W3C//DTD SVG 1.1//EN" "http://www.w3.org/Graphics/SVG/1.1/DTD/svg11.dtd"><svg t="1609289465849" class="icon" viewBox="0 0 1319 1024" version="1.1" xmlns="http://www.w3.org/2000/svg" p-id="10753" xmlns:xlink="http://www.w3.org/1999/xlink" width="257.6171875" height="200"><defs><style type="text/css"></style></defs><path d="M1133.903624 1024H185.551573a185.755476 185.755476 0 0 1-185.551573-185.551573V185.551573A185.755476 185.755476 0 0 1 185.551573 0h948.352051a185.755476 185.755476 0 0 1 185.551573 185.551573v652.489048a185.755476 185.755476 0 0 1-185.551573 185.959379zM185.551573 44.858622a140.896854 140.896854 0 0 0-140.692951 140.692951v652.489048A140.896854 140.896854 0 0 0 185.551573 978.733572h948.352051a140.692951 140.692951 0 0 0 140.692951-140.692951v-652.489048a140.896854 140.896854 0 0 0-140.692951-140.692951z" p-id="10754" fill="#8a8a8a"></path><path d="M652.489048 565.218638a24.060534 24.060534 0 0 1-12.641975-3.874154l-530.147352-359.276782a22.429311 22.429311 0 0 1 25.283951-37.110315L652.489048 515.670251 1186.918359 164.753485a22.429311 22.429311 0 0 1 24.672242 37.51812L665.334926 561.548387a23.244922 23.244922 0 0 1-12.845878 3.670251z" p-id="10755" fill="#8a8a8a"></path></svg>