<?xml version="1.0" standalone="no"?><!DOCTYPE svg PUBLIC "-//W3C//DTD SVG 1.1//EN" "http://www.w3.org/Graphics/SVG/1.1/DTD/svg11.dtd"><svg class="icon" width="200px" height="200.00px" viewBox="0 0 1024 1024" version="1.1" xmlns="http://www.w3.org/2000/svg"><path fill="#d4237a" d="M860.8 880H163.2c-67.2 0-121.6-41.6-121.6-96v-544c0-51.2 54.4-96 121.6-96h694.4c67.2 0 121.6 41.6 121.6 96v544c3.2 51.2-51.2 96-118.4 96zM163.2 198.4c-28.8 0-54.4 19.2-54.4 44.8v544c0 22.4 25.6 44.8 54.4 44.8h694.4c28.8 0 54.4-19.2 54.4-44.8v-544c0-22.4-25.6-44.8-54.4-44.8H163.2z" /></svg>